<svg xmlns="http://www.w3.org/2000/svg" id="Layer_1" viewBox="0 0 52 53">
<path d="M39.49,26.35c0,2.17-.01,4.33,0,6.5,0,.6-.22.93-.75,1.18-4.12,1.96-8.22,3.95-12.33,5.91-.23.11-.6.1-.83-.01-4.09-1.95-8.16-3.93-12.24-5.87-.6-.29-.8-.66-.8-1.31.02-4.37,0-8.74,0-13.1,0-.37.11-.65.45-.81,3.84-1.85,7.68-3.7,11.53-5.53,1.88-.89,1.15-.91,3.08,0,3.77,1.8,7.53,3.62,11.3,5.42.45.21.63.5.62,1-.02,2.2,0,4.4,0,6.6,0,0,0,0,0,0ZM38.1,20.65c-.17.06-.28.09-.38.14-3.56,1.71-7.13,3.44-10.69,5.14-.27.13-.33.29-.33.57,0,3.79,0,7.57,0,11.36,0,.12.02.24.04.4,3.74-1.8,7.43-3.57,11.11-5.37.13-.07.23-.34.24-.51.02-1.49.01-2.98.01-4.47,0-2.4,0-4.79,0-7.27ZM13.96,20.67c-.01.13-.03.2-.03.28,0,3.84,0,7.67-.01,11.51,0,.35.19.44.43.56,3.48,1.67,6.96,3.35,10.44,5.03.16.08.32.14.52.23v-.55c0-3.7,0-7.41,0-11.11,0-.38-.11-.58-.46-.74-3.5-1.67-6.99-3.35-10.48-5.03-.13-.06-.26-.1-.43-.17ZM30.8,16.42c-1.54-.74-2.97-1.42-4.39-2.12-.28-.14-.5-.14-.78,0-2.28,1.11-4.58,2.21-6.87,3.31-1.28.61-2.55,1.23-3.89,1.87,1.5.72,2.94,1.41,4.37,2.12.29.14.53.15.82,0,2.49-1.21,4.99-2.41,7.49-3.61,1.05-.51,2.1-1.02,3.24-1.57ZM21.25,22.55c1.58.76,3.09,1.5,4.61,2.21.14.06.38-.02.55-.1,3.42-1.64,6.84-3.28,10.25-4.93.14-.07.28-.14.48-.25-1.48-.71-2.9-1.39-4.31-2.08-.31-.15-.56-.17-.87-.01-2.25,1.1-4.52,2.18-6.78,3.27-1.29.62-2.58,1.24-3.94,1.89Z"></path>
<path d="M8.86,42.43c-.17,1.52-.34,3.04-.51,4.57-.06.54-.35.82-.77.77-.44-.05-.66-.41-.59-.97.22-2,.44-4.01.65-6.01.07-.64.3-.88.92-.81,2.06.21,4.11.43,6.16.66.5.06.76.37.71.77-.05.41-.38.63-.88.58-1.27-.13-2.53-.27-3.8-.41-.17-.02-.35-.02-.68-.04.63.58,1.12,1.09,1.66,1.54,4.63,3.88,9.97,5.63,15.99,5.19,9.94-.73,18.11-8.2,19.85-18.07.7-3.97.31-7.83-1.11-11.6-.05-.12-.1-.25-.14-.37-.18-.52-.07-.88.34-1.04.39-.16.78.03.95.54.36,1.05.74,2.09,1.01,3.16,3.18,12.69-4.87,25.72-17.67,28.37-8.29,1.71-15.53-.54-21.61-6.46-.13-.13-.23-.28-.35-.42-.04.02-.09.04-.13.06Z"></path>
<path d="M43.14,10.66c.18-1.62.36-3.14.53-4.67.06-.57.34-.85.8-.79.43.05.64.38.58.93-.22,2.07-.45,4.14-.67,6.21-.06.51-.35.77-.87.71-2.09-.22-4.17-.45-6.26-.69-.45-.05-.7-.37-.65-.78.05-.41.38-.64.88-.59,1.31.14,2.63.29,3.94.43.14.02.29.02.51.04-.13-.15-.2-.26-.29-.34-4.79-4.74-10.57-6.94-17.27-6.46-9.87.7-17.93,7.93-19.85,17.66-.8,4.04-.45,7.99.98,11.86.06.15.12.31.17.46.13.44-.04.8-.42.93-.39.13-.75-.03-.89-.48-.44-1.42-.98-2.82-1.24-4.27-1.26-6.96.28-13.29,4.66-18.84,3.79-4.8,8.78-7.7,14.84-8.53,7.9-1.09,14.68,1.32,20.28,6.99.06.06.12.11.25.22Z"></path>
<path d="M17.46,26.02c.26.1.42.15.57.22,1.15.54,2.29,1.09,3.43,1.64.52.25.68.63.48,1.02-.2.38-.58.48-1.07.24-1.17-.56-2.35-1.13-3.52-1.69-.35-.17-.58-.45-.43-.83.09-.24.36-.41.54-.59Z"></path>
</svg>