<svg width="80" height="80" viewBox="0 0 80 80" fill="none" xmlns="http://www.w3.org/2000/svg">
<mask id="mask0_4015_8715" style="mask-type:luminance" maskUnits="userSpaceOnUse" x="0" y="0" width="80" height="80">
<path d="M80 0H0V80H80V0Z" fill="white"/>
</mask>
<g mask="url(#mask0_4015_8715)">
<path d="M13.8393 5H46.8893C50.0464 5 52.6036 7.55714 52.6036 10.7143V54.6536C52.6036 57.8107 50.0464 60.3679 46.8893 60.3679H13.8393C10.6821 60.3679 8.125 57.8107 8.125 54.6536V10.7143C8.125 7.55714 10.6821 5 13.8393 5Z" fill="#EBF2FF"/>
<path d="M13.8037 12.1429H28.1609C29.1287 12.1429 29.9109 12.925 29.9109 13.8929C29.9109 14.8607 29.1287 15.6429 28.1609 15.6429H13.8037C12.8359 15.6429 12.0537 14.8607 12.0537 13.8929C12.0537 12.925 12.8359 12.1429 13.8037 12.1429Z" fill="#B6CFFC"/>
<path d="M13.8037 22.0703H46.018C46.9859 22.0703 47.768 22.8525 47.768 23.8203C47.768 24.7882 46.9859 25.5703 46.018 25.5703H13.8037C12.8359 25.5703 12.0537 24.7882 12.0537 23.8203C12.0537 22.8525 12.8359 22.0703 13.8037 22.0703Z" fill="#B6CFFC"/>
<path d="M13.8037 31.9991H46.018C46.9859 31.9991 47.768 32.7813 47.768 33.7491C47.768 34.717 46.9859 35.4991 46.018 35.4991H13.8037C12.8359 35.4991 12.0537 34.717 12.0537 33.7491C12.0537 32.7813 12.8359 31.9991 13.8037 31.9991Z" fill="#B6CFFC"/>
<path d="M13.8037 41.928H46.018C46.9859 41.928 47.768 42.7102 47.768 43.678C47.768 44.6459 46.9859 45.428 46.018 45.428H13.8037C12.8359 45.428 12.0537 44.6459 12.0537 43.678C12.0537 42.7102 12.8359 41.928 13.8037 41.928Z" fill="#B6CFFC"/>
<path fill-rule="evenodd" clip-rule="evenodd" d="M42.4487 62.8564C47.0487 62.8564 51.3237 61.4635 54.8773 59.0814L69.413 72.9564L74.6844 66.8421L60.6594 53.4528C63.2487 49.8064 64.7737 45.3492 64.7737 40.5385C64.7737 28.21 54.7809 18.2171 42.4523 18.2171C30.1237 18.2171 20.1309 28.21 20.1309 40.5385C20.1273 52.8635 30.1201 62.8564 42.4487 62.8564ZM61.488 40.535C61.488 50.9707 53.0273 59.4314 42.5916 59.4314C32.1559 59.4314 23.6951 50.9707 23.6951 40.535C23.6951 30.0992 32.1559 21.6385 42.5916 21.6385C53.0273 21.6385 61.488 30.0992 61.488 40.535Z" fill="#7AABFA"/>
<path d="M42.5893 59.7991C53.3393 59.7991 62.0536 51.1634 62.0536 40.5134C62.0536 29.8634 53.3393 21.2277 42.5893 21.2277C31.8393 21.2277 23.125 29.8634 23.125 40.5134C23.125 51.1634 31.8393 59.7991 42.5893 59.7991Z" fill="white" fill-opacity="0.51"/>
<path d="M45.9546 40.5136L50.6654 35.8207C51.1082 35.3564 51.3475 34.7386 51.3404 34.0993C51.3332 33.46 51.0725 32.8528 50.6189 32.3993C50.1654 31.9493 49.5511 31.6886 48.9082 31.6814C48.2654 31.6743 47.6439 31.9136 47.1761 32.3528L42.4546 37.0457L37.7439 32.3528C37.5189 32.1136 37.2439 31.9243 36.9439 31.7921C36.6404 31.66 36.3154 31.5886 35.9868 31.585C35.6582 31.5814 35.3296 31.6421 35.0225 31.7636C34.7154 31.8886 34.4404 32.0707 34.2046 32.3028C33.9725 32.535 33.7868 32.81 33.6618 33.1136C33.5368 33.4171 33.4761 33.7421 33.4796 34.0707C33.4832 34.3993 33.5546 34.7207 33.6868 35.0243C33.8189 35.3243 34.0118 35.5957 34.2511 35.8207L38.9761 40.5136L34.2582 45.2064C34.0189 45.4314 33.8261 45.7028 33.6939 46.0028C33.5618 46.3028 33.4904 46.6278 33.4868 46.9564C33.4832 47.285 33.5439 47.61 33.6689 47.9136C33.7939 48.2171 33.9761 48.4921 34.2118 48.7243C34.4439 48.9564 34.7225 49.1386 35.0296 49.2636C35.3368 49.3886 35.6618 49.4493 35.9939 49.4421C36.3261 49.435 36.6511 49.3671 36.9511 49.235C37.2546 49.1028 37.5261 48.9136 37.7511 48.6743L42.4725 43.9814L47.1939 48.6743C47.6654 49.085 48.2761 49.3064 48.9046 49.285C49.5332 49.2636 50.1296 49.0064 50.5725 48.5671C51.0154 48.1243 51.2725 47.5314 51.2904 46.9064C51.3082 46.2814 51.0868 45.6743 50.6689 45.2064L45.9546 40.5136Z" fill="#B6CFFC"/>
<path d="M69.4111 72.9566L74.6826 66.8387L75.4754 67.5959C76.2468 68.3316 76.7076 69.3566 76.7576 70.453C76.8076 71.5459 76.4433 72.6173 75.7468 73.428C75.0468 74.2387 74.0718 74.7245 73.0326 74.778C71.9933 74.8316 70.9754 74.4495 70.2076 73.7137L69.4111 72.9566Z" fill="#B6CFFC"/>
</g>
</svg>
