<svg xmlns="http://www.w3.org/2000/svg" id="Layer_1" viewBox="0 0 52 53">
<path d="M51.52,25.94c0,.27,0,.49,0,.71-.01.82-.57,1.42-1.34,1.45-.79.03-1.4-.49-1.47-1.31-.07-.81-.03-1.63-.14-2.45-1.19-8.98-5.97-15.26-14.27-18.82-2.51-1.08-5.17-1.55-7.91-1.59-.19,0-.38,0-.56-.02-.83-.09-1.37-.71-1.32-1.52.05-.76.65-1.29,1.49-1.3,2.43,0,4.84.29,7.15,1.04,9.85,3.23,15.87,9.93,17.97,20.1.26,1.24.35,2.49.4,3.71Z"></path>
<path d="M26.35,9.07c8.28.17,15.5,6.39,16.9,14.54.16.94.26,1.89.28,2.84.02.97-.52,1.61-1.36,1.64-.87.03-1.46-.59-1.48-1.58-.08-4.04-1.55-7.5-4.42-10.33-2.8-2.76-6.19-4.19-10.13-4.27-.92-.02-1.53-.48-1.62-1.22-.11-.86.5-1.58,1.37-1.62.15,0,.31,0,.46,0Z"></path>
<path d="M47.93,41.05c-3.34-3.33-6.69-6.66-10.05-9.98-1.47-1.45-3.44-1.44-4.91,0-1.3,1.28-2.64,2.52-3.88,3.85-.9.97-1.92,1.14-3.11.86-2.25-.53-4.06-1.81-5.66-3.4-1.65-1.64-2.97-3.5-3.51-5.82-.27-1.15-.12-2.14.83-3.01,1.36-1.24,2.63-2.58,3.92-3.89,1.4-1.43,1.4-3.41,0-4.83-1.11-1.13-2.23-2.25-3.35-3.38-2.22-2.24-4.44-4.48-6.67-6.71-1.43-1.43-3.44-1.43-4.87-.02-.98.97-1.95,1.95-2.93,2.93-.72.71-1.32,1.51-1.79,2.41-1.38,2.66-1.59,5.5-1.23,8.4.42,3.43,1.6,6.63,3.18,9.68,2.55,4.94,5.98,9.21,10.03,13,3.65,3.42,7.69,6.29,12.26,8.35,3.27,1.47,6.66,2.46,10.51,2.51.35-.03.93-.05,1.51-.11,2.56-.28,4.85-1.16,6.72-2.99,1.01-.99,2.01-1.99,3-3,1.42-1.45,1.41-3.45-.02-4.87ZM45.92,43.95c-1.06,1.06-2.09,2.15-3.2,3.16-1.51,1.39-3.38,1.9-5.38,2.03-.31.02-.61,0-.92,0-3.35-.02-6.49-.95-9.46-2.42-9.36-4.64-16.43-11.64-21.09-21.01-1.47-2.94-2.41-6.06-2.46-9.4-.02-1.65.21-3.26.95-4.76.33-.66.74-1.26,1.26-1.79,1-1,2.01-1.99,2.99-3.01.34-.35.63-.33.95,0,3.32,3.35,6.65,6.7,9.98,10.05.37.37.2.66-.1.95-1.28,1.27-2.52,2.6-3.84,3.82-1.7,1.56-2.05,3.47-1.56,5.6.74,3.25,2.64,5.78,5.07,7.96,1.81,1.62,3.84,2.88,6.25,3.4,2.13.47,4.03.14,5.61-1.53,1.26-1.34,2.61-2.59,3.93-3.88.42-.41.61-.42,1.02,0,3.33,3.3,6.65,6.6,9.98,9.9.33.32.32.61,0,.92Z"></path>
</svg>