<svg xmlns="http://www.w3.org/2000/svg" xmlns:xlink="http://www.w3.org/1999/xlink" viewBox="0,0,256,256" width="20px" height="20px" fill-rule="nonzero"><g fill="none" fill-rule="nonzero" stroke="none" stroke-width="1" stroke-linecap="butt" stroke-linejoin="miter" stroke-miterlimit="10" stroke-dasharray="" stroke-dashoffset="0" font-family="none" font-weight="none" font-size="none" text-anchor="none" style="mix-blend-mode: normal"><g transform="scale(3.2,3.2)"><path d="M67.5,75.5h-55c-4.418,0 -8,-3.582 -8,-8v-55c0,-4.418 3.582,-8 8,-8h55c4.418,0 8,3.582 8,8v55c0,4.418 -3.582,8 -8,8z" fill="#0e7bd7" stroke="none"></path><path d="M17,66c0,0 10,-4 8,-17l13,12c0,0 -10,9 -21,5z" fill="#ffffff" stroke="none"></path><path d="M67.5,4.5h-46.365c-5.099,6.653 -8.135,14.97 -8.135,24c0,21.815 17.685,39.5 39.5,39.5c8.584,0 16.521,-2.747 23,-7.397v-48.103c0,-4.418 -3.582,-8 -8,-8z" fill="#ffffff" stroke="none"></path><path d="M67.5,75.5h-55c-4.418,0 -8,-3.582 -8,-8v-55c0,-4.418 3.582,-8 8,-8h55c4.418,0 8,3.582 8,8v55c0,4.418 -3.582,8 -8,8z" fill="none" stroke="#4e7ab5"></path><path d="M64.378,41.967c-3.65,0 -6.622,-2.972 -6.622,-6.622c0,-3.65 2.972,-6.622 6.622,-6.622c3.65,0 6.622,2.973 6.622,6.622c0,3.649 -2.972,6.622 -6.622,6.622zM64.378,31.372c-2.19,0 -3.973,1.783 -3.973,3.973c0,2.19 1.783,3.973 3.973,3.973c2.19,0 3.973,-1.783 3.973,-3.973c0,-2.19 -1.783,-3.973 -3.973,-3.973z" fill="#0e7bd7" stroke="none"></path><path d="M55.108,41.967h-1.766c-0.487,0 -0.883,-0.396 -0.883,-0.883v-15.009h2.649z" fill="#0e7bd7" stroke="none"></path><path d="M47.162,29.165v0.916c-1.111,-0.841 -2.477,-1.358 -3.973,-1.358c-3.65,0 -6.622,2.972 -6.622,6.622c0,3.65 2.972,6.622 6.622,6.622c1.496,0 2.862,-0.517 3.973,-1.358v0.475c0,0.487 0.396,0.883 0.883,0.883h1.766v-12.802zM43.189,39.318c-2.19,0 -3.973,-1.783 -3.973,-3.973c0,-2.19 1.783,-3.973 3.973,-3.973c2.19,0 3.973,1.783 3.973,3.973c0,2.19 -1.783,3.973 -3.973,3.973z" fill="#0e7bd7" stroke="none"></path><path d="M37.009,26.075h-14.126v2.649h9.396l-9.837,11.477h0.046c-0.288,0.373 -0.488,0.818 -0.488,1.325v0.441h13.243c0.487,0 0.883,-0.396 0.883,-0.883v-1.766h-9.396l9.837,-11.477h-0.046c0.288,-0.373 0.487,-0.818 0.487,-1.324v-0.442z" fill="#0e7bd7" stroke="none"></path></g></g></svg>